<mxfile host="app.diagrams.net" modified="2021-04-14T11:24:32.941Z" agent="5.0 (Macintosh; Intel Mac OS X 11_2_3) AppleWebKit/537.36 (KHTML, like Gecko) Chrome/89.0.4389.114 Safari/537.36" etag="jiYoQbAdAMjYdD6All0t" version="14.6.0" type="github">
  <diagram id="IheaC0U4uMJvS-xsiiT4" name="Page-1">
    <mxGraphModel dx="946" dy="515" grid="1" gridSize="10" guides="1" tooltips="1" connect="1" arrows="1" fold="1" page="1" pageScale="1" pageWidth="827" pageHeight="1169" math="0" shadow="0">
      <root>
        <mxCell id="0" />
        <mxCell id="1" parent="0" />
        <mxCell id="suj8xIRAmIAZU1hrFX8F-1" value="Interface&lt;br&gt;Standard I/O&amp;nbsp; &amp;nbsp; &amp;nbsp; &amp;nbsp; &amp;nbsp; &amp;nbsp; &amp;nbsp; &amp;nbsp; &amp;nbsp; &amp;nbsp; &amp;nbsp; &amp;nbsp; &amp;nbsp; &amp;nbsp; &amp;nbsp; &amp;nbsp; &amp;nbsp; &amp;nbsp; &amp;nbsp; &amp;nbsp; &amp;nbsp; &amp;nbsp; &amp;nbsp; &amp;nbsp; &amp;nbsp; &amp;nbsp; &amp;nbsp; &amp;nbsp; &amp;nbsp; &amp;nbsp; &amp;nbsp; &amp;nbsp; &amp;nbsp; &amp;nbsp; &amp;nbsp; &amp;nbsp; &amp;nbsp; &amp;nbsp;Text files" style="rounded=0;whiteSpace=wrap;html=1;" vertex="1" parent="1">
          <mxGeometry x="160" y="300" width="480" height="60" as="geometry" />
        </mxCell>
        <mxCell id="suj8xIRAmIAZU1hrFX8F-3" value="CafeInMaude object" style="rounded=0;whiteSpace=wrap;html=1;" vertex="1" parent="1">
          <mxGeometry x="370" y="180" width="270" height="100" as="geometry" />
        </mxCell>
        <mxCell id="suj8xIRAmIAZU1hrFX8F-5" value="Database" style="rounded=0;whiteSpace=wrap;html=1;" vertex="1" parent="1">
          <mxGeometry x="160" y="80" width="80" height="200" as="geometry" />
        </mxCell>
        <mxCell id="suj8xIRAmIAZU1hrFX8F-10" value="" style="rounded=1;whiteSpace=wrap;html=1;" vertex="1" parent="1">
          <mxGeometry x="260" y="80" width="190" height="80" as="geometry" />
        </mxCell>
        <mxCell id="suj8xIRAmIAZU1hrFX8F-11" value="Grammar" style="rounded=0;whiteSpace=wrap;html=1;" vertex="1" parent="1">
          <mxGeometry x="260" y="180" width="80" height="30" as="geometry" />
        </mxCell>
        <mxCell id="suj8xIRAmIAZU1hrFX8F-13" value="" style="endArrow=classic;html=1;entryX=0.004;entryY=0.14;entryDx=0;entryDy=0;entryPerimeter=0;" edge="1" parent="1" target="suj8xIRAmIAZU1hrFX8F-3">
          <mxGeometry width="50" height="50" relative="1" as="geometry">
            <mxPoint x="340" y="194" as="sourcePoint" />
            <mxPoint x="360" y="196" as="targetPoint" />
          </mxGeometry>
        </mxCell>
        <mxCell id="suj8xIRAmIAZU1hrFX8F-18" value="" style="endArrow=classic;startArrow=classic;html=1;exitX=1.013;exitY=0.94;exitDx=0;exitDy=0;exitPerimeter=0;entryX=-0.004;entryY=0.88;entryDx=0;entryDy=0;entryPerimeter=0;" edge="1" parent="1" source="suj8xIRAmIAZU1hrFX8F-5" target="suj8xIRAmIAZU1hrFX8F-3">
          <mxGeometry width="50" height="50" relative="1" as="geometry">
            <mxPoint x="259" y="268" as="sourcePoint" />
            <mxPoint x="361" y="268" as="targetPoint" />
          </mxGeometry>
        </mxCell>
        <mxCell id="suj8xIRAmIAZU1hrFX8F-19" value="MI1" style="shape=cylinder3;whiteSpace=wrap;html=1;boundedLbl=1;backgroundOutline=1;size=15;" vertex="1" parent="1">
          <mxGeometry x="280" y="90" width="40" height="60" as="geometry" />
        </mxCell>
        <mxCell id="suj8xIRAmIAZU1hrFX8F-20" value="MIn" style="shape=cylinder3;whiteSpace=wrap;html=1;boundedLbl=1;backgroundOutline=1;size=15;" vertex="1" parent="1">
          <mxGeometry x="394" y="90" width="40" height="60" as="geometry" />
        </mxCell>
        <mxCell id="suj8xIRAmIAZU1hrFX8F-21" value="..." style="text;html=1;strokeColor=none;fillColor=none;align=center;verticalAlign=middle;whiteSpace=wrap;rounded=0;" vertex="1" parent="1">
          <mxGeometry x="335" y="110" width="40" height="20" as="geometry" />
        </mxCell>
        <mxCell id="suj8xIRAmIAZU1hrFX8F-25" value="" style="endArrow=classic;html=1;" edge="1" parent="1">
          <mxGeometry width="50" height="50" relative="1" as="geometry">
            <mxPoint x="400" y="160" as="sourcePoint" />
            <mxPoint x="400" y="180" as="targetPoint" />
          </mxGeometry>
        </mxCell>
        <mxCell id="suj8xIRAmIAZU1hrFX8F-27" value="" style="rounded=0;whiteSpace=wrap;html=1;" vertex="1" parent="1">
          <mxGeometry x="470" y="80" width="170" height="80" as="geometry" />
        </mxCell>
        <mxCell id="suj8xIRAmIAZU1hrFX8F-28" value="" style="endArrow=classic;html=1;" edge="1" parent="1">
          <mxGeometry width="50" height="50" relative="1" as="geometry">
            <mxPoint x="570" y="180" as="sourcePoint" />
            <mxPoint x="570" y="160" as="targetPoint" />
          </mxGeometry>
        </mxCell>
        <mxCell id="suj8xIRAmIAZU1hrFX8F-29" value="" style="endArrow=classic;startArrow=classic;html=1;" edge="1" parent="1">
          <mxGeometry width="50" height="50" relative="1" as="geometry">
            <mxPoint x="485" y="301" as="sourcePoint" />
            <mxPoint x="485" y="278" as="targetPoint" />
          </mxGeometry>
        </mxCell>
        <mxCell id="suj8xIRAmIAZU1hrFX8F-31" value="T1" style="shape=card;whiteSpace=wrap;html=1;" vertex="1" parent="1">
          <mxGeometry x="483" y="90" width="34" height="60" as="geometry" />
        </mxCell>
        <mxCell id="suj8xIRAmIAZU1hrFX8F-32" value="Tm" style="shape=card;whiteSpace=wrap;html=1;" vertex="1" parent="1">
          <mxGeometry x="590" y="90" width="34" height="60" as="geometry" />
        </mxCell>
        <mxCell id="suj8xIRAmIAZU1hrFX8F-33" value="..." style="text;html=1;strokeColor=none;fillColor=none;align=center;verticalAlign=middle;whiteSpace=wrap;rounded=0;" vertex="1" parent="1">
          <mxGeometry x="535" y="110" width="40" height="20" as="geometry" />
        </mxCell>
        <mxCell id="suj8xIRAmIAZU1hrFX8F-34" value="" style="endArrow=classic;html=1;exitX=0;exitY=0.5;exitDx=0;exitDy=0;entryX=1;entryY=0.5;entryDx=0;entryDy=0;" edge="1" parent="1" source="suj8xIRAmIAZU1hrFX8F-27" target="suj8xIRAmIAZU1hrFX8F-10">
          <mxGeometry width="50" height="50" relative="1" as="geometry">
            <mxPoint x="410" y="260" as="sourcePoint" />
            <mxPoint x="460" y="210" as="targetPoint" />
          </mxGeometry>
        </mxCell>
        <mxCell id="suj8xIRAmIAZU1hrFX8F-42" value="CafeInMaude" style="rounded=0;whiteSpace=wrap;html=1;" vertex="1" parent="1">
          <mxGeometry x="260" y="220" width="80" height="30" as="geometry" />
        </mxCell>
        <mxCell id="suj8xIRAmIAZU1hrFX8F-43" value="Tasks" style="text;html=1;strokeColor=none;fillColor=none;align=center;verticalAlign=middle;whiteSpace=wrap;rounded=0;" vertex="1" parent="1">
          <mxGeometry x="535" y="80" width="40" height="20" as="geometry" />
        </mxCell>
        <mxCell id="suj8xIRAmIAZU1hrFX8F-44" value="" style="endArrow=classic;html=1;" edge="1" parent="1">
          <mxGeometry width="50" height="50" relative="1" as="geometry">
            <mxPoint x="340" y="238" as="sourcePoint" />
            <mxPoint x="369" y="238" as="targetPoint" />
          </mxGeometry>
        </mxCell>
        <mxCell id="suj8xIRAmIAZU1hrFX8F-47" value="Interpreters" style="text;html=1;strokeColor=none;fillColor=none;align=center;verticalAlign=middle;whiteSpace=wrap;rounded=0;" vertex="1" parent="1">
          <mxGeometry x="340" y="80" width="40" height="20" as="geometry" />
        </mxCell>
      </root>
    </mxGraphModel>
  </diagram>
</mxfile>
